<?xml version="1.0" encoding="utf-8"?>
<!-- Generator: Adobe Illustrator 24.3.0, SVG Export Plug-In . SVG Version: 6.00 Build 0)  -->
<svg version="1.1" id="Layer_1" xmlns="http://www.w3.org/2000/svg" xmlns:xlink="http://www.w3.org/1999/xlink" x="0px" y="0px"
	 viewBox="0 0 1000 1000" style="enable-background:new 0 0 1000 1000;" xml:space="preserve">
<style type="text/css">
	.st0{fill:#3C3C3B;}
</style>
<g>
	<path class="st0" d="M218.24,432.61c0-5.35-2.09-10.1-5.96-14.26c-3.87-3.86-8.64-5.94-14.3-5.94c-6.85,0-12.22,2.67-16.09,8.02
		v120.91c0,5.05-1.49,9.21-4.77,12.18c-3.28,3.27-7.45,4.75-12.52,4.75c-5.07,0-8.94-1.49-12.22-4.75
		c-2.98-2.97-4.47-7.13-4.47-12.18V432.61c0-5.35-2.09-10.1-6.26-14.26c-3.87-3.86-8.64-5.94-14.3-5.94s-10.43,1.78-14.6,5.94
		c-3.87,3.86-5.96,8.62-5.96,14.26v108.73c0,5.05-1.49,9.21-4.47,12.18c-3.28,3.27-7.15,4.75-12.22,4.75s-9.24-1.49-12.52-4.75
		c-3.28-2.97-4.77-7.13-4.77-12.18V432.91c0-15.45,5.36-28.22,15.79-38.62c10.43-10.69,23.54-16.04,38.74-16.04
		c13.41,0,25.03,4.46,35.46,13.37c9.83-8.91,21.75-13.37,35.16-13.37c15.2,0,28.31,5.35,38.74,15.74
		c10.43,10.69,15.5,23.47,15.5,38.92v52.28v19.61v36.54c0,5.05-1.49,9.21-4.77,12.18c-3.28,3.27-7.45,4.75-12.22,4.75
		c-5.07,0-9.24-1.49-12.52-4.75c-2.98-2.97-4.47-7.13-4.47-12.18V504.8v-19.61V432.61z"/>
	<path class="st0" d="M355.02,521.13v-6.54v-14.85c-9.54,4.75-19.67,7.43-30.39,7.43h-0.3h-8.94c-5.07,0-8.94-1.49-12.22-4.75
		c-2.98-3.27-4.77-7.43-4.77-12.48c0-5.05,1.79-8.91,4.77-12.18c3.28-2.97,7.15-4.46,12.22-4.46h8.94h0.3
		c8.34,0,15.5-2.97,21.45-9.21c5.96-5.94,8.94-13.07,8.94-21.39c0-8.62-2.98-15.74-8.94-21.39c-5.96-5.94-13.11-8.91-21.45-8.91
		c-8.64,0-15.79,2.97-21.45,8.62c-5.96,5.94-8.94,13.07-8.94,21.69v98.63c0,5.05-1.49,9.21-4.77,12.18
		c-3.28,3.27-7.45,4.75-12.52,4.75c-4.77,0-8.94-1.49-12.22-4.75c-2.98-2.97-4.47-7.13-4.47-12.18v-98.63
		c0-18.12,5.96-33.57,18.48-45.75c12.22-12.48,27.71-18.72,45.89-18.72s33.37,6.24,45.89,18.72c12.22,12.18,18.47,27.63,18.47,45.75
		v71.89v6.54v20.2c0,5.05-1.49,9.21-4.77,12.18c-2.98,3.27-7.15,4.75-12.22,4.75c-5.07,0-9.24-1.49-12.22-4.75
		c-3.28-2.97-4.77-7.13-4.77-12.18V521.13z"/>
	<path class="st0" d="M608.3,473.31c8.34,0,15.79-2.97,21.75-9.21c5.96-5.94,8.94-13.07,8.94-21.39c0-8.62-2.98-15.74-8.94-21.39
		c-5.96-5.94-13.41-8.91-21.75-8.91c-8.34,0-15.5,2.97-21.45,8.62c-5.96,5.94-8.64,13.07-8.64,21.69v98.63
		c0,5.05-1.79,9.21-5.07,12.18c-2.98,3.27-7.15,4.75-12.22,4.75c-4.77,0-8.94-1.78-12.22-4.75c-2.98-3.27-4.77-7.43-4.77-12.18
		v-98.63c0-18.12,6.26-33.57,18.48-45.75c12.52-12.48,27.71-18.72,45.89-18.72c18.18,0,33.37,6.24,45.89,18.72
		c12.52,12.18,18.77,27.63,18.77,45.75s-6.26,33.27-18.77,45.75s-27.71,18.72-45.89,18.72c-5.07,0-8.94-1.49-12.22-4.75
		c-2.98-3.27-4.77-7.43-4.77-12.48c0-5.05,1.79-8.91,4.77-12.18C599.36,474.79,603.24,473.31,608.3,473.31L608.3,473.31z"/>
	<path class="st0" d="M769.51,558.86c-25.33,0-46.78-8.91-64.07-26.44c-17.58-17.23-26.52-38.62-26.52-63.87
		c0-25.25,8.94-46.64,26.52-63.87c17.28-17.53,38.74-26.44,64.07-26.44c5.07,0,8.94,1.78,12.22,4.75c3.28,3.27,4.77,7.13,4.77,12.18
		c0,5.05-1.49,9.21-4.77,12.48c-3.28,2.97-7.15,4.75-12.22,4.75c-12.22,0-23.24,3.56-32.78,10.4c-9.83,7.13-16.69,16.34-20.56,27.63
		h53.34c5.07,0,8.94,1.78,12.22,4.75c3.28,3.27,4.77,7.13,4.77,12.18c0,5.05-1.49,9.21-4.77,12.48c-3.28,2.97-7.15,4.75-12.22,4.75
		h-54.23c3.58,11.88,10.43,21.39,20.56,29.11c9.83,7.43,21.16,10.99,33.67,10.99c5.07,0,8.94,1.78,12.22,4.75
		c3.28,3.27,4.77,7.43,4.77,12.48c0,5.05-1.49,8.91-4.77,12.18C778.45,557.08,774.58,558.86,769.51,558.86L769.51,558.86z"/>
	<path class="st0" d="M872.61,525v-32.38v-60.01c0-5.35-2.09-10.1-5.96-14.26c-3.87-3.86-8.64-5.94-14.3-5.94
		c-5.66,0-10.73,1.78-14.6,5.94c-3.87,3.86-5.96,8.62-5.96,14.26v108.73c0,5.05-1.49,9.21-4.77,12.18
		c-3.28,3.27-7.45,4.75-12.52,4.75c-5.07,0-8.94-1.49-12.22-4.75c-2.98-2.97-4.47-7.13-4.47-12.18V432.91
		c0-15.45,5.07-28.22,15.79-38.62c10.43-10.69,23.24-16.04,38.74-16.04c14.3,0,27.12,5.05,37.84,15.15
		c11.03,10.1,16.39,21.98,16.39,36.24v62.98V525v16.34c0,5.05-1.49,9.21-4.77,12.18c-2.98,3.27-7.15,4.75-12.22,4.75
		c-5.07,0-9.24-1.49-12.22-4.75c-3.28-2.97-4.77-7.13-4.77-12.18V525z"/>
	<path class="st0" d="M501.62,511.63v-9.51v-2.08c-8.94,4.75-19.07,7.13-30.1,7.13h-0.3h-18.47c-5.07,0-8.94-1.49-12.22-4.75
		c-2.98-3.27-4.77-7.43-4.77-12.48c0-5.05,1.79-8.91,4.77-12.18c3.28-2.97,7.15-4.46,12.22-4.46h18.47h0.3
		c8.34,0,15.5-2.97,21.45-9.21c5.36-5.35,8.05-11.59,8.64-19.01v-0.89v-24.36v-24.66c0-5.05,1.49-8.91,4.77-12.18
		c2.98-2.97,7.15-4.75,12.22-4.75c5.07,0,9.24,1.78,12.22,4.75c3.28,3.27,4.77,7.13,4.77,12.18v47.53h0.3c0,1.19-0.3,2.38-0.3,3.56
		v46.34v19.01v29.71c0,5.05-1.49,9.21-4.77,12.18c-2.98,3.27-7.15,4.75-12.22,4.75c-5.07,0-9.24-1.49-12.22-4.75
		c-3.28-2.97-4.77-7.13-4.77-12.18V511.63z M432.49,478.36v23.77v39.21c0,5.05-1.49,9.21-4.77,12.18
		c-3.28,3.27-7.45,4.75-12.52,4.75c-4.77,0-8.94-1.49-12.22-4.75c-2.98-2.97-4.47-7.13-4.47-12.18V395.18
		c0-5.05,1.49-8.91,4.47-12.18c3.28-2.97,7.45-4.75,12.22-4.75c5.07,0,9.24,1.78,12.52,4.75c3.28,3.27,4.77,7.13,4.77,12.18v24.66
		v24.36V478.36z"/>
</g>
</svg>
