<?xml version="1.0" encoding="utf-8"?>
<!-- Generator: Adobe Illustrator 24.3.0, SVG Export Plug-In . SVG Version: 6.00 Build 0)  -->
<svg version="1.1" id="Layer_1" xmlns="http://www.w3.org/2000/svg" xmlns:xlink="http://www.w3.org/1999/xlink" x="0px" y="0px"
	 viewBox="0 0 1000 1000" style="enable-background:new 0 0 1000 1000;" xml:space="preserve">
<style type="text/css">
	.st0{fill:#359138;}
	.st1{fill:#8E1638;}
	.st2{fill:#FFFFFF;}
</style>
<g>
	<circle class="st0" cx="472.87" cy="448.16" r="160.35"/>
	<g>
		<path class="st1" d="M472.87,627.19c-98.72,0-179.03-80.31-179.03-179.04s80.31-179.04,179.03-179.04
			c98.72,0,179.04,80.31,179.04,179.04S571.6,627.19,472.87,627.19z M472.87,276.29c-94.76,0-171.86,77.1-171.86,171.86
			s77.1,171.86,171.86,171.86c94.77,0,171.86-77.1,171.86-171.86S567.64,276.29,472.87,276.29z"/>
	</g>
	<g>
		<path class="st2" d="M455.41,469.44h35.24v-58.11v-0.31c0-5.86,2.16-10.79,6.18-14.79c4.02-4.01,9.27-6.16,15.15-6.16
			c5.87,0,10.82,2.16,14.84,6.47c4.02,4.01,6.18,8.94,6.18,14.79c0,31.04,0,38.05,0,58.11h35.24c0-21.42,0-29.13,0-61.19
			c0-14.79-5.56-27.43-17-37.91c-11.44-10.17-24.42-15.41-39.26-15.41c-15.46,0-28.44,4.93-38.95,15.1
			c-11.13-10.17-24.11-15.1-38.95-15.1c-15.77,0-29.37,5.55-40.19,16.33s-16.38,24.35-16.38,40.07v112.8
			c0,5.24,1.55,9.25,4.95,12.64c3.09,3.08,7.42,4.62,12.68,4.62c5.26,0,9.58-1.54,12.68-4.62c3.4-3.39,4.95-7.4,4.95-12.64v-112.8
			c0-5.86,2.16-10.79,6.18-15.1c4.33-4.01,9.27-6.16,15.15-6.16s10.82,2.16,15.15,6.47c4.02,4.01,6.18,8.94,6.18,14.79V469.44z"/>
		<path class="st2" d="M533,481.5v3.49c0,6.16-2.16,11.1-6.18,15.1c-4.02,4.31-9.27,6.16-15.15,6.16c-5.87,0-10.82-2.16-14.84-6.16
			c-4.33-4.31-6.18-9.25-6.18-15.1c0-0.74,0-1.98,0-3.49h-35.24c0,1.56,0,3.44,0,5.71c0,0.43,0,0.71,0,1.17
			c0,14.79,5.56,27.12,17,37.6c11.13,10.48,24.42,15.41,39.26,15.41c16.08,0,29.37-5.24,40.19-16.33
			c11.13-10.79,16.38-24.04,16.38-40.07v-3.49H533z"/>
	</g>
</g>
</svg>
