<?xml version="1.0" encoding="utf-8"?>
<!-- Generator: Adobe Illustrator 24.3.0, SVG Export Plug-In . SVG Version: 6.00 Build 0)  -->
<svg version="1.1" id="Layer_1" xmlns="http://www.w3.org/2000/svg" xmlns:xlink="http://www.w3.org/1999/xlink" x="0px" y="0px"
	 viewBox="0 0 1000 1000" style="enable-background:new 0 0 1000 1000;" xml:space="preserve">
<style type="text/css">
	.st0{fill:#3C3C3B;}
</style>
<g>
	<path class="st0" d="M473.02,499c-5.66,0-10.73,2.08-14.6,6.24c-4.17,3.86-6.26,8.91-6.26,14.56s2.09,10.69,6.26,14.85
		c3.87,4.16,8.94,5.94,14.6,5.94c5.66,0,10.73-1.78,14.9-5.94c4.17-4.16,5.96-9.21,5.96-14.85s-1.79-10.69-5.96-14.56
		C483.74,501.08,478.68,499,473.02,499z"/>
	<path class="st0" d="M517.42,499c-5.66,0-10.73,2.08-14.9,6.24c-3.87,3.86-5.96,8.91-5.96,14.56s2.09,10.69,5.96,14.85
		c4.17,4.16,9.24,5.94,14.9,5.94c5.66,0,10.73-1.78,14.9-5.94c3.87-4.16,5.96-9.21,5.96-14.85s-2.09-10.69-5.96-14.56
		C528.14,501.08,523.08,499,517.42,499z"/>
	<path class="st0" d="M153.28,430.38c-4.17,3.86-6.26,8.91-6.26,14.56s2.09,10.69,6.26,14.85c4.17,4.16,8.94,5.94,14.6,5.94
		s10.73-1.78,14.9-5.94c4.17-4.16,6.26-9.21,6.26-14.85s-2.09-10.69-6.26-14.56c-4.17-4.16-9.24-6.24-14.9-6.24
		S157.45,426.22,153.28,430.38z"/>
	<path class="st0" d="M888.11,378.98c-12.22-12.48-27.71-18.72-45.89-18.72c-17.88,0-33.37,6.24-45.89,18.72
		c-12.22,12.48-18.47,27.63-18.47,45.75v10.1c0,5.35-2.09,10.4-5.96,14.26c-4.17,3.86-8.94,5.94-14.3,5.94
		c-5.96,0-10.73-2.08-14.6-5.94c-4.17-3.86-5.96-8.62-5.96-14.26V428v-8.02h-0.37c-0.92-16.24-6.88-30.08-18.4-41.29
		c-12.22-12.48-27.71-18.42-45.89-18.42c-18.18,0-33.37,5.94-45.89,18.42c-12.52,12.18-18.77,27.33-18.77,45.45h0.3v0.59v10.1
		c0,5.35-2.09,10.4-5.96,14.26c-3.87,3.86-8.64,5.94-14.3,5.94c-5.96,0-10.73-2.08-14.6-5.94c-4.17-3.86-5.96-8.62-5.96-14.26V428
		v-50.5c0-5.05-1.49-9.21-4.77-12.18c-2.98-3.27-7.15-4.75-12.22-4.75c-5.07,0-9.24,1.49-12.22,4.75
		c-3.28,2.97-5.07,7.13-5.07,12.18V428v6.83c0,5.64-1.79,10.4-5.96,14.26c-3.87,3.86-8.64,5.94-14.3,5.94H274.26h-0.3
		c-5.36,0-10.43-2.08-14.3-5.94c-3.87-3.86-5.96-8.91-5.96-14.26V377.5c0-5.05-1.49-9.21-4.77-12.18
		c-2.98-3.27-7.15-4.75-12.22-4.75c-5.07,0-8.94,1.49-12.22,4.75c-3.28,2.97-4.77,7.13-4.77,12.18v73.08
		c0,16.04-5.36,29.41-16.09,40.1c-11.03,10.69-24.43,16.04-40.23,16.04h-0.3c-15.79,0-29.2-5.35-39.93-16.34
		c-10.73-10.69-16.39-24.06-16.39-39.81c0-15.74,5.66-29.11,16.39-40.1c10.73-10.69,24.14-16.04,39.93-16.04
		c5.07,0,9.24-1.78,12.52-4.75c2.98-3.27,4.77-7.43,4.77-12.48c0-5.05-1.79-9.21-4.77-12.18c-3.28-2.97-7.45-4.75-12.52-4.75
		c-25.03,0-46.49,8.91-64.07,26.44c-17.58,17.23-26.22,38.62-26.22,63.87c0,25.25,8.64,46.64,26.22,63.87
		c17.58,17.53,39.04,26.14,64.07,26.14h0.3c25.03,0,46.49-8.61,64.07-26.14c9.63-9.44,16.48-20.17,20.79-32.05
		c7.69,4.15,16.25,6.5,25.99,6.5h238.39c14.59,0,27.2-4.8,37.42-14.64c10.46,9.59,22.79,14.64,37.37,14.64
		c7.75,0,14.83-1.34,21.27-3.97c1.6,14.61,7.4,27.21,17.77,37.54c12.52,12.48,27.71,18.71,45.89,18.71
		c18.18,0,33.37-6.24,45.89-18.71c10.61-10.33,16.45-22.92,18.06-37.52c6.43,2.62,13.4,3.95,20.98,3.95
		c15.49,0,28.31-5.35,38.74-15.74c10.43-10.4,15.79-23.17,15.79-38.32v-10.1c0-8.32,2.98-15.74,8.94-21.39
		c5.96-5.94,13.11-8.91,21.45-8.91c8.64,0,15.79,2.97,21.45,8.62c5.96,5.94,8.94,13.07,8.94,21.69c0,8.32-2.98,15.45-8.94,21.39
		c-5.66,6.24-12.81,9.21-21.45,9.21c-4.77,0-8.94,1.49-12.22,4.46c-3.28,3.27-4.77,7.13-4.77,12.18c0,5.05,1.49,9.21,4.77,12.48
		c3.28,2.97,7.45,4.75,12.22,4.75c18.18,0,33.67-6.24,45.89-18.72c12.52-12.48,18.47-27.63,18.47-45.75
		C906.58,406.61,900.62,391.16,888.11,378.98z M693.82,498.41c-5.96,5.94-13.11,8.62-21.45,8.62s-15.49-2.67-21.45-8.62
		c-5.96-5.94-8.94-13.07-8.94-21.39v-42.18v-10.1v-0.59c0-0.61-0.09-1.15-0.14-1.72c0.4-7.57,3.27-14.15,9.08-19.67
		c5.96-5.64,13.11-8.62,21.45-8.62c8.64,0,15.79,2.97,21.75,8.62c4.64,4.87,7.37,10.58,8.24,17.05c-9.42-4.92-19.41-7.54-29.99-7.54
		c-5.07,0-9.24,1.78-12.22,4.75c-3.28,3.27-4.77,7.43-4.77,12.48c0,5.05,1.49,8.91,4.77,12.18c2.98,2.97,7.15,4.75,12.22,4.75
		c8.34,0,15.5,2.97,21.45,8.91c5.96,5.94,8.94,13.07,8.94,21.39C702.76,485.34,699.78,492.47,693.82,498.41z"/>
	<path class="st0" d="M442.62,534.65c3.87-4.16,5.96-9.21,5.96-14.85s-2.09-10.69-5.96-14.56c-4.17-4.16-9.24-6.24-14.9-6.24
		c-5.66,0-10.73,2.08-14.6,6.24c-4.17,3.86-6.26,8.91-6.26,14.56s2.09,10.69,6.26,14.85c3.87,4.16,8.94,5.94,14.6,5.94
		C433.38,540.59,438.45,538.81,442.62,534.65z"/>
	<path class="st0" d="M476.59,556.63l-47.68,27.33c-2.68,1.49-3.58,4.75-2.09,7.13c1.49,2.67,4.77,3.56,7.15,2.08l47.98-27.63
		c2.38-1.49,3.28-4.46,1.79-7.13C482.25,556.04,478.98,555.15,476.59,556.63z"/>
	<path class="st0" d="M773.38,357l47.68-27.63c2.68-1.49,3.58-4.75,2.09-7.13c-1.49-2.67-4.77-3.27-7.15-2.08l-47.98,27.63
		c-2.38,1.49-3.28,4.75-1.79,7.13C767.72,357.6,770.7,358.49,773.38,357z"/>
</g>
</svg>
